<svg width="140" height="27" viewBox="0 0 140 27" fill="none" xmlns="http://www.w3.org/2000/svg">
<g id="logo" clip-path="url(#clip0_64_581)">
<path id="Vector" d="M26.6949 2.87173H26.6945C25.3444 2.87173 24.25 3.96618 24.25 5.31625V22.6436C24.25 23.9937 25.3444 25.0881 26.6945 25.0881H26.6949C28.045 25.0881 29.1394 23.9937 29.1394 22.6436V5.31625C29.1394 3.96618 28.045 2.87173 26.6949 2.87173Z" fill="black"/>
<path id="Vector_2" d="M11.6962 3.33959L11.6958 3.33941C10.4788 2.755 9.01843 3.26785 8.43402 4.48487L0.236389 21.5564C-0.348019 22.7734 0.164816 24.2338 1.38184 24.8182L1.38221 24.8184C2.59923 25.4028 4.05959 24.8899 4.64399 23.6729L12.8416 6.60137C13.426 5.38435 12.9132 3.924 11.6962 3.33959Z" fill="black"/>
<path id="Vector_3" d="M20.2609 24.8216L20.2612 24.8214C21.4782 24.237 21.9911 22.7767 21.4067 21.5597L13.1599 4.38574C12.5755 3.16871 11.1151 2.65587 9.8981 3.24028L9.89773 3.24045C8.6807 3.82486 8.16787 5.28521 8.75228 6.50224L16.9991 23.6762C17.5835 24.8932 19.0438 25.406 20.2609 24.8216Z" fill="black"/>
<path id="Vector_4" d="M19.2656 17.7696V17.7692C19.2656 16.4191 18.1712 15.3247 16.8211 15.3247H5.19125C3.84118 15.3247 2.74674 16.4191 2.74674 17.7692V17.7696C2.74674 19.1197 3.84118 20.2141 5.19125 20.2141H16.8211C18.1712 20.2141 19.2656 19.1197 19.2656 17.7696Z" fill="black"/>
<path id="Vector_5" d="M39.6211 22.644V22.6436C39.6211 21.2935 38.5266 20.1991 37.1766 20.1991H26.9654C25.6153 20.1991 24.5209 21.2935 24.5209 22.6436V22.644C24.5209 23.9941 25.6153 25.0885 26.9654 25.0885H37.1766C38.5266 25.0885 39.6211 23.9941 39.6211 22.644Z" fill="black"/>
<path id="Vector_6" d="M45.0113 2.87173H45.0109C43.6608 2.87173 42.5664 3.96618 42.5664 5.31625V22.6436C42.5664 23.9937 43.6608 25.0881 45.0109 25.0881H45.0113C46.3614 25.0881 47.4558 23.9937 47.4558 22.6436V5.31625C47.4558 3.96618 46.3614 2.87173 45.0113 2.87173Z" fill="black"/>
<path id="Vector_7" d="M69.2688 8.04937C69.1682 7.90668 69.0833 7.75354 69.0156 7.59262C69.1178 7.73433 69.2028 7.88765 69.2688 8.04937Z" fill="black"/>
<path id="Vector_8" d="M74.8346 18.34C74.8346 20.2475 73.9997 21.9748 72.6494 23.2249C71.2991 24.4751 69.4335 25.2485 67.3749 25.2485C65.3163 25.2485 63.4502 24.4751 62.1003 23.2249C61.6855 22.8418 61.3184 22.41 61.0069 21.939L61.0045 21.9357C60.913 21.7965 60.8267 21.6546 60.7456 21.5099C60.6073 21.2156 60.5357 20.8943 60.5359 20.5691V20.5207C60.5359 19.2123 61.6814 18.1511 63.0948 18.1511H63.0985C63.681 18.1491 64.2484 18.3363 64.7154 18.6844C65.1286 18.9966 65.3696 19.468 65.7229 19.8368C66.141 20.2736 66.7366 20.4942 67.3362 20.5036H67.3769C67.9878 20.5079 68.5779 20.2816 69.0292 19.8698C69.4178 19.5234 69.6597 19.042 69.7056 18.5235C69.7515 18.005 69.598 17.4885 69.2763 17.0792C69.0728 16.8187 68.8204 16.5671 68.5114 16.4389C68.1813 16.3021 67.8169 16.2801 67.4636 16.2785C66.8965 16.2757 66.3511 16.2464 65.7946 16.1393C65.1814 16.0221 64.585 15.8298 64.0189 15.5665C63.1436 15.1513 62.3543 14.5752 61.692 13.8682C60.5852 12.6632 59.918 11.1001 59.918 9.39643C59.918 7.48886 60.7525 5.76203 62.1028 4.51148C63.453 3.26093 65.3187 2.48788 67.3773 2.48788C69.4359 2.48788 71.302 3.26133 72.6518 4.51148C73.0652 4.89301 73.4313 5.32269 73.7424 5.79133C73.848 5.95145 73.9467 6.11564 74.0387 6.2839C74.1642 6.56665 74.229 6.87258 74.2289 7.18192V7.21489C74.2289 8.52366 73.0837 9.5845 71.6704 9.5845H71.6317C71.0658 9.5845 70.4878 9.41638 70.0396 9.06385C69.8051 8.87903 69.6537 8.65066 69.4738 8.41537C69.2911 8.16797 69.0812 7.94185 68.8481 7.74125C68.4353 7.39971 67.9069 7.2324 67.374 7.2324C66.7632 7.22803 66.1733 7.4544 65.7221 7.86622C65.5082 8.05983 65.3369 8.29581 65.2191 8.55918C65.1013 8.82254 65.0396 9.10752 65.0378 9.39603C65.0395 9.81265 65.1707 10.2184 65.4132 10.5572C65.6557 10.896 65.9975 11.151 66.3914 11.2869C66.8127 11.4278 67.2584 11.4383 67.6977 11.4607C68.1508 11.4835 68.6046 11.512 69.0492 11.6065C69.6179 11.7272 70.1715 11.911 70.6995 12.1544C71.5918 12.5642 72.3943 13.1465 73.0605 13.8678C74.1674 15.0732 74.8346 16.6347 74.8346 18.34Z" fill="black"/>
<path id="Vector_9" d="M69.2688 8.04937C69.1682 7.90668 69.0833 7.75354 69.0156 7.59262C69.1178 7.73433 69.2028 7.88765 69.2688 8.04937Z" fill="black"/>
<path id="Vector_10" d="M69.2688 8.04937C69.1682 7.90668 69.0833 7.75354 69.0156 7.59262C69.1178 7.73433 69.2028 7.88765 69.2688 8.04937Z" fill="black"/>
<path id="Vector_11" d="M60.8672 21.3927C60.9445 21.5425 61.027 21.6889 61.1147 21.8319C61.0171 21.6945 60.9342 21.5473 60.8672 21.3927V21.3927Z" stroke="black" stroke-width="0.040708" stroke-miterlimit="10"/>
<path id="Vector_12" d="M102.714 2.87173H102.714C101.364 2.87173 100.27 3.96618 100.27 5.31625V22.6436C100.27 23.9937 101.364 25.0881 102.714 25.0881H102.714C104.065 25.0881 105.159 23.9937 105.159 22.6436V5.31625C105.159 3.96618 104.065 2.87173 102.714 2.87173Z" fill="black"/>
<path id="Vector_13" d="M101.67 3.45117L101.67 3.45142C100.584 4.25333 100.353 5.78387 101.155 6.86997L109.413 18.0546C110.215 19.1407 111.746 19.3711 112.832 18.5692L112.832 18.569C113.918 17.7671 114.149 16.2365 113.347 15.1504L105.089 3.96574C104.287 2.87964 102.756 2.64926 101.67 3.45117Z" fill="black"/>
<path id="Vector_14" d="M110.244 18.5693L110.244 18.5696C111.33 19.3715 112.861 19.1411 113.663 18.055L121.921 6.87031C122.723 5.78421 122.493 4.25367 121.406 3.45176L121.406 3.45152C120.32 2.6496 118.79 2.87999 117.988 3.96609L109.729 15.1508C108.928 16.2369 109.158 17.7674 110.244 18.5693Z" fill="black"/>
<path id="Vector_15" d="M120.269 2.87173H120.269C118.919 2.87173 117.824 3.96618 117.824 5.31625V22.6436C117.824 23.9937 118.919 25.0881 120.269 25.0881H120.269C121.619 25.0881 122.714 23.9937 122.714 22.6436V5.31625C122.714 3.96618 121.619 2.87173 120.269 2.87173Z" fill="black"/>
<path id="Vector_16" d="M127.289 2.87173H127.288C125.938 2.87173 124.844 3.96618 124.844 5.31625V22.6436C124.844 23.9937 125.938 25.0881 127.288 25.0881H127.289C128.639 25.0881 129.733 23.9937 129.733 22.6436V5.31625C129.733 3.96618 128.639 2.87173 127.289 2.87173Z" fill="black"/>
<path id="Vector_17" d="M57.9375 22.644V22.6436C57.9375 21.2935 56.8431 20.1991 55.493 20.1991H45.2818C43.9317 20.1991 42.8373 21.2935 42.8373 22.6436V22.644C42.8373 23.9941 43.9317 25.0885 45.2818 25.0885H55.493C56.8431 25.0885 57.9375 23.9941 57.9375 22.644Z" fill="black"/>
<path id="Vector_18" d="M140 22.6436V22.6432C140 21.2932 138.906 20.1987 137.555 20.1987H127.344C125.994 20.1987 124.9 21.2932 124.9 22.6432V22.6436C124.9 23.9937 125.994 25.0882 127.344 25.0882H137.555C138.906 25.0882 140 23.9937 140 22.6436Z" fill="black"/>
<path id="Vector_19" d="M140 5.31664V5.31624C140 3.96617 138.906 2.87173 137.555 2.87173L127.344 2.87173C125.994 2.87173 124.9 3.96617 124.9 5.31624V5.31664C124.9 6.66671 125.994 7.76116 127.344 7.76116L137.555 7.76116C138.906 7.76116 140 6.66671 140 5.31664Z" fill="black"/>
<path id="Vector_20" d="M137.57 13.7741V13.7737C137.57 12.4236 136.476 11.3292 135.126 11.3292H127.944C126.594 11.3292 125.5 12.4236 125.5 13.7737V13.7741C125.5 15.1242 126.594 16.2186 127.944 16.2186H135.126C136.476 16.2186 137.57 15.1242 137.57 13.7741Z" fill="black"/>
<path id="Vector_21" d="M87.9343 21.0019C93.2764 21.0019 97.607 16.6713 97.607 11.3293C97.607 5.98723 93.2764 1.65665 87.9343 1.65665C82.5923 1.65665 78.2617 5.98723 78.2617 11.3293C78.2617 16.6713 82.5923 21.0019 87.9343 21.0019Z" stroke="black" stroke-width="1.91327" stroke-miterlimit="10"/>
<path id="Vector_22" d="M87.9336 1.65665V4.82983" stroke="black" stroke-width="1.91327" stroke-miterlimit="10"/>
<path id="Vector_23" d="M97.606 11.3292H94.1133" stroke="black" stroke-width="1.91327" stroke-miterlimit="10"/>
<path id="Vector_24" d="M87.9336 21.0014V17.9467" stroke="black" stroke-width="1.91327" stroke-miterlimit="10"/>
<path id="Vector_25" d="M78.2617 11.3292H81.866" stroke="black" stroke-width="1.91327" stroke-miterlimit="10"/>
<path id="Vector_26" d="M84.6719 20.4369L87.6904 24.9347L90.6156 20.7409" stroke="black" stroke-width="1.91327" stroke-miterlimit="10"/>
<path id="Vector_27" d="M88.5234 11.841L88.5259 16.8651L93.1238 13.4351V8.71582L88.5234 11.841Z" fill="black"/>
<path id="Vector_28" d="M87.4875 11.841L87.4851 16.8651L82.8867 13.4351V8.71582L87.4875 11.841Z" fill="black"/>
<path id="Vector_29" d="M83.6641 8.24443L88.0259 10.9751L92.2192 8.09707L87.9877 5.91187L83.6641 8.24443Z" fill="black"/>
</g>
<defs>
<clipPath id="clip0_64_581">
<rect width="140" height="25.9289" fill="white" transform="translate(0 0.699982)"/>
</clipPath>
</defs>
</svg>
